<svg xmlns="http://www.w3.org/2000/svg" xml:space="preserve" width="2048" height="2048" style="shape-rendering:geometricPrecision;text-rendering:geometricPrecision;image-rendering:optimizeQuality;fill-rule:evenodd;clip-rule:evenodd"><defs><style>.fil0{fill:none}.fil4{fill:#fff176}.fil1{fill:#e53935;fill-rule:nonzero}</style></defs><g id="Layer_x0020_1"><path class="fil0" d="M0 0h2048v2048H0z"/><path class="fil0" d="M255.999 255.999h1536v1536h-1536z"/><path class="fil0" d="M255.999 256h1536v1536h-1536z"/><g id="_342652248"><path id="_342652944" class="fil1" d="M1446.46 1638.56c5.62 5.637 13.462 9.131 22.201 9.131 8.697 0 16.598-3.553 22.33-9.283 5.73-5.732 9.284-13.634 9.284-22.33 0-8.74-3.494-16.582-9.132-22.201-5.709-5.691-13.661-9.21-22.482-9.21a31.321 31.321 0 0 0-22.228 9.182 31.321 31.321 0 0 0-9.183 22.229c0 8.82 3.52 16.773 9.21 22.482z"/><path id="_342652872" class="fil1" d="M1001.67 1638.41c5.73 5.73 13.629 9.282 22.322 9.282 8.696 0 16.598-3.552 22.33-9.283 5.73-5.732 9.283-13.634 9.283-22.33 0-8.74-3.494-16.582-9.131-22.201-5.71-5.69-13.662-9.21-22.482-9.21-8.818 0-16.767 3.518-22.474 9.209-5.635 5.618-9.128 13.46-9.128 22.202 0 8.699 3.552 16.602 9.28 22.331z"/><path id="_342652776" class="fil1" d="M557.005 1638.41c5.732 5.73 13.633 9.283 22.33 9.283 8.739 0 16.581-3.493 22.201-9.13 5.69-5.71 9.21-13.662 9.21-22.483a31.321 31.321 0 0 0-9.183-22.228 31.321 31.321 0 0 0-22.228-9.183c-8.82 0-16.773 3.52-22.482 9.21-5.638 5.62-9.132 13.462-9.132 22.201 0 8.696 3.553 16.598 9.284 22.33z"/><path id="_342652656" d="M1500.28 1436.64v-201.625c0-26.385-10.643-50.224-27.834-67.442-17.135-17.16-40.894-27.775-67.192-27.775H642.747c-26.297 0-50.056 10.615-67.192 27.775-17.19 17.218-27.833 41.057-27.833 67.442v224.177l-21.376 7.573c-31.337 11.1-58.117 31.58-76.847 58.038-18.134 25.617-28.792 57.07-28.792 91.268 0 87.522 70.975 158.628 158.628 158.628 43.74 0 83.402-17.784 112.127-46.507 28.717-28.719 46.502-68.372 46.502-112.121 0-34.09-10.686-65.49-28.852-91.113-18.842-26.575-45.681-47.11-76.99-58.193l-21.376-7.567V1203.014H992.393v256.178l-21.376 7.573c-31.337 11.1-58.118 31.58-76.848 58.038-18.133 25.617-28.792 57.07-28.792 91.268 0 87.522 71.002 158.628 158.617 158.628 43.8 0 83.449-17.767 112.148-46.466 28.719-28.719 46.481-68.388 46.481-112.162 0-34.198-10.658-65.65-28.792-91.268-18.73-26.459-45.511-46.938-76.848-58.038l-21.376-7.573v-256.177H1437.254v256.183l-21.376 7.567c-31.308 11.083-58.148 31.618-76.99 58.193-18.165 25.623-28.852 57.023-28.852 91.113 0 87.522 71.134 158.628 158.63 158.628 43.811 0 83.456-17.763 112.151-46.458 28.719-28.718 46.477-68.39 46.477-112.17 0-34.198-10.659-65.651-28.792-91.268-18.73-26.46-45.51-46.938-76.848-58.038l-21.375-7.573v-22.552zm-476.285 275.046c-26.362 0-50.268-10.726-67.572-28.033-17.307-17.31-28.031-41.219-28.031-67.582 0-26.291 10.758-50.137 28.129-67.453 17.33-17.28 41.207-27.96 67.474-27.96 26.267 0 50.146 10.683 67.482 27.961 17.37 17.317 28.133 41.16 28.133 67.452 0 26.362-10.727 50.27-28.035 67.58-17.31 17.308-41.218 28.035-67.58 28.035zm444.671 0c-26.291 0-50.136-10.762-67.452-28.133-17.278-17.336-27.961-41.216-27.961-67.482 0-26.362 10.669-50.213 27.934-67.479 17.266-17.265 41.117-27.934 67.48-27.934 26.266 0 50.145 10.683 67.481 27.961 17.37 17.317 28.133 41.16 28.133 67.452 0 26.362-10.727 50.27-28.035 67.58-17.31 17.308-41.218 28.035-67.58 28.035zm-889.331 0c-26.362 0-50.27-10.727-67.58-28.035-17.308-17.31-28.035-41.218-28.035-67.58 0-26.291 10.762-50.136 28.133-67.452 17.336-17.278 41.215-27.961 67.482-27.961 26.362 0 50.213 10.669 67.479 27.934 17.265 17.266 27.934 41.117 27.934 67.479 0 26.267-10.683 50.146-27.961 67.482-17.317 17.37-41.16 28.133-67.452 28.133z" style="fill:#004d40;fill-rule:nonzero"/><path id="_342652584" d="M1280.97 525.374c0 69.7-28.932 132.842-75.703 178.583a257.472 257.472 0 0 1-35.093 28.727c67.811 10.647 128.557 42.198 175.048 87.667 58.144 56.866 94.16 135.33 94.16 221.866v.242h-.117l.618 38.286.524 32.5H608.001v-70.786c0-86.58 36.07-165.144 94.29-222.075A322.069 322.069 0 0 1 877.2 732.595a257.158 257.158 0 0 1-34.956-28.63c-46.687-45.668-75.561-108.808-75.561-178.59 0-69.68 28.919-132.79 75.679-178.5 46.503-45.464 110.66-73.579 181.443-73.579 70.783 0 134.954 28.116 181.472 73.584 46.766 45.709 75.694 108.816 75.694 178.494z" style="fill:#26a69a;fill-rule:nonzero"/><path id="_342652488" class="fil4" d="M579.335 1520.66c-26.267 0-50.146 10.683-67.482 27.961-17.37 17.317-28.133 41.16-28.133 67.452 0 26.362 10.727 50.27 28.035 67.58 17.31 17.308 41.218 28.035 67.58 28.035 26.291 0 50.136-10.762 67.452-28.133 17.278-17.336 27.961-41.215 27.961-67.482 0-26.362-10.669-50.213-27.934-67.479-17.266-17.265-41.117-27.934-67.479-27.934zm-31.613 95.413c0-8.739 3.493-16.581 9.13-22.201 5.71-5.69 13.663-9.21 22.483-9.21a31.321 31.321 0 0 1 22.228 9.183 31.321 31.321 0 0 1 9.183 22.228c0 8.82-3.52 16.773-9.21 22.482-5.62 5.638-13.462 9.132-22.2 9.132-8.697 0-16.599-3.553-22.33-9.284-5.732-5.732-9.284-13.633-9.284-22.33z"/><path id="_342652344" class="fil4" d="M956.52 1548.62c-17.37 17.316-28.13 41.161-28.13 67.453 0 26.363 10.725 50.271 28.032 67.581 17.304 17.308 41.21 28.034 67.572 28.034 26.362 0 50.27-10.727 67.58-28.035 17.308-17.31 28.035-41.218 28.035-67.58 0-26.292-10.762-50.136-28.133-67.452-17.336-17.278-41.215-27.961-67.482-27.961-26.267 0-50.144 10.68-67.474 27.96zm35.873 67.453c0-8.742 3.492-16.584 9.127-22.203 5.707-5.69 13.656-9.209 22.474-9.209 8.82 0 16.773 3.52 22.482 9.21 5.638 5.62 9.131 13.463 9.131 22.202 0 8.696-3.552 16.598-9.283 22.33-5.732 5.73-13.633 9.283-22.33 9.283-8.693 0-16.592-3.551-22.322-9.282-5.728-5.73-9.28-13.632-9.28-22.331z"/><path id="_342652320" class="fil4" d="M1401.19 1548.6c-17.265 17.265-27.934 41.117-27.934 67.479 0 26.266 10.683 50.146 27.961 67.482 17.316 17.37 41.16 28.133 67.452 28.133 26.362 0 50.27-10.727 67.58-28.035 17.308-17.31 28.035-41.218 28.035-67.58 0-26.292-10.762-50.136-28.133-67.452-17.336-17.278-41.216-27.961-67.482-27.961-26.362 0-50.214 10.669-67.479 27.934zm36.067 67.479a31.321 31.321 0 0 1 9.183-22.229 31.321 31.321 0 0 1 22.229-9.183c8.82 0 16.773 3.52 22.482 9.21 5.638 5.62 9.131 13.463 9.131 22.202 0 8.696-3.552 16.598-9.283 22.33-5.732 5.73-13.634 9.283-22.33 9.283-8.74 0-16.582-3.494-22.201-9.131-5.69-5.71-9.21-13.662-9.21-22.482z"/></g></g></svg>
